<?xml version="1.0" encoding="UTF-8" standalone="no"?><!DOCTYPE svg PUBLIC "-//W3C//DTD SVG 1.1//EN" "http://www.w3.org/Graphics/SVG/1.1/DTD/svg11.dtd"><svg width="100%" height="100%" viewBox="0 0 46 50" version="1.1" xmlns="http://www.w3.org/2000/svg" xmlns:xlink="http://www.w3.org/1999/xlink" xml:space="preserve" xmlns:serif="http://www.serif.com/" style="fill-rule:evenodd;clip-rule:evenodd;stroke-linejoin:round;stroke-miterlimit:2;"><g id="layer1"><path id="path825" d="M37.232,0c-4.093,0.094 -4.714,1.991 -10.48,2.833l-14.667,-0c-1.587,-0 -3.158,0.318 -4.625,0.937c-1.466,0.619 -2.798,1.525 -3.92,2.669c-1.122,1.143 -2.013,2.5 -2.62,3.994c-0.607,1.493 -0.92,3.094 -0.92,4.711l0,21.842c0,3.265 1.274,6.396 3.54,8.704c2.266,2.309 5.34,3.606 8.545,3.606l21.442,-0c1.588,-0 3.159,-0.318 4.625,-0.937c1.467,-0.618 2.799,-1.525 3.921,-2.668c1.123,-1.144 2.013,-2.501 2.62,-3.994c0.608,-1.494 0.92,-3.094 0.92,-4.711l0,-28.924l-0.007,-0.016c-0.155,-4.481 -3.925,-8.045 -8.374,-8.045l-0,-0.001Zm0.165,5.383c1.565,-0 2.833,1.268 2.833,2.833c0,1.565 -1.268,2.833 -2.833,2.833c-1.565,-0 -2.833,-1.268 -2.833,-2.833c-0,-1.565 1.268,-2.833 2.833,-2.833Zm-18.929,5.667c0.171,-0.002 0.341,0.007 0.507,0.03l7.769,-0c0.68,-0 1.309,0.256 1.78,0.676c0.001,0.001 0.001,0.001 0.002,0.002l-0,-0.001c1.158,0.793 1.756,2.243 1.405,3.665l-3.555,14.397c-0.341,1.382 -1.487,2.376 -2.833,2.593c-0.058,0.019 -0.116,0.034 -0.174,0.05c-1.859,0.493 -3.78,-0.608 -4.277,-2.445l-3.956,-14.614l-0,-0c-0.496,-1.833 0.614,-3.742 2.47,-4.235c0.287,-0.076 0.577,-0.115 0.862,-0.118l0,-0Zm3.914,24.364c2.972,-0 5.383,2.41 5.383,5.383c-0,2.972 -2.411,5.383 -5.383,5.383c-2.973,-0 -5.383,-2.411 -5.383,-5.383c-0,-2.973 2.41,-5.383 5.383,-5.383Z" style="fill:#be4949;fill-rule:nonzero;"/></g></svg>