<svg xmlns="http://www.w3.org/2000/svg" viewBox="0 0 767.6 191">
  <defs>
    <style>
      .cls-1 {
        fill: #3c3c3c;
      }

      .cls-2 {
        fill: #f70;
      }

      .cls-3 {
        fill: #fff;
      }
    </style>
  </defs>
  <g id="Symbole_23_1" data-name="Symbole 23 – 1" transform="translate(-577 -446.516)">
    <path id="Tracé_3456" data-name="Tracé 3456" class="cls-1" d="M48.953-42.57c1.466-.943,4.51-.83,4.51-.83H64.8a75.758,75.758,0,0,0,28.1-5.1A46.707,46.707,0,0,0,113.6-64q7.8-10.4,7.8-25.6,0-15.4-7.3-25.8a43.832,43.832,0,0,0-19.7-15.5A72.474,72.474,0,0,0,66.6-136H26.286s-4.763-.041-7.4,1.925-2.483,5.564-2.483,5.564V-3.588a3.986,3.986,0,0,0,.77,2.735,4.788,4.788,0,0,0,2.9.853H43.957a4.221,4.221,0,0,0,2.869-.853c.911-.972.774-3.035.774-3.035V-39.627A3.519,3.519,0,0,1,48.953-42.57ZM65.6-110.8q11,0,17.1,5.6t6.1,16.4q-.2,9.4-6.5,14.9T66-68.4H50.653a3.693,3.693,0,0,1-2.331-.742,3.813,3.813,0,0,1-.722-2.364v-37.132a2.062,2.062,0,0,1,.722-1.716,5.2,5.2,0,0,1,2.5-.446Z" transform="translate(735 592.516)"/>
    <path id="Tracé_3455" data-name="Tracé 3455" class="cls-1" d="M152-110.4a16.763,16.763,0,0,0,12.3-5.1,16.533,16.533,0,0,0,5.1-12.1,16.763,16.763,0,0,0-5.1-12.3A16.763,16.763,0,0,0,152-145a16.533,16.533,0,0,0-12.1,5.1,16.763,16.763,0,0,0-5.1,12.3,16.533,16.533,0,0,0,5.1,12.1A16.533,16.533,0,0,0,152-110.4ZM166.744-1.253A5.163,5.163,0,0,0,167.8-4.6v-84.4s.2-3.8-1.622-5.8S160.525-97,160.525-97H146.1s-4.891.167-7.317,2.8-2.387,7.732-2.387,7.732V-6.591s-.182,3.621,1.4,5.269S142.746,0,142.746,0h20.475A6.231,6.231,0,0,0,166.744-1.253Zm130.162-.5c2.2-1.778,3.011-5.364,3.011-5.364L327.88-92.949s.738-1.925,0-2.938S324.926-97,324.926-97H302.113a8.712,8.712,0,0,0-3.818,1.113,5.151,5.151,0,0,0-1.792,2.841L285.676-45.3a1.478,1.478,0,0,1-1.531,1.429,1.478,1.478,0,0,1-1.531-1.429L270.8-92.243a6.42,6.42,0,0,0-1.879-3.643,7.68,7.68,0,0,0-4.2-1.113H242.978a8.845,8.845,0,0,0-4.06,1.113,5.149,5.149,0,0,0-1.784,3.05l-9.2,44.235s-.213,1.2-2.768,2.041-3.5-2.041-3.5-2.041l-9.779-43.51s-.312-4.106-2.534-5.735-6.353-.78-6.353-.78L188.87-94.519s-4.51,1.1-6.014,3.812,0,7.019,0,7.019L207.17-7.6s.641,3.954,3.141,5.855S217.169,0,217.169,0h13.64s3.62-.012,5.709-1.749,2.647-5.2,2.647-5.2L250.631-47.5a2.736,2.736,0,0,1,2.768-2.381,2.847,2.847,0,0,1,2.844,2.381L267.781-7.66s.468,4,3.092,5.911S278.279,0,278.279,0H291.1S294.7.029,296.906-1.749ZM357.2-110.4a16.762,16.762,0,0,0,12.3-5.1,16.533,16.533,0,0,0,5.1-12.1,16.763,16.763,0,0,0-5.1-12.3,16.763,16.763,0,0,0-12.3-5.1,16.533,16.533,0,0,0-12.1,5.1,16.763,16.763,0,0,0-5.1,12.3,16.533,16.533,0,0,0,5.1,12.1A16.533,16.533,0,0,0,357.2-110.4ZM371.326-1.749C373.259-3.477,373-6.91,373-6.91V-90.436s-.11-3.058-1.541-4.7A7.042,7.042,0,0,0,367.277-97H348.615s-3.556.212-5.31,1.978-1.7,5.084-1.7,5.084V-8.3s-.307,4.473,1.314,6.546S348.085,0,348.085,0h17.184S369.393-.021,371.326-1.749ZM485.84-95.233c.863,1.373.863,6.905.863,6.905L486.4,3.8a38.992,38.992,0,0,1-6.5,22.4,41.1,41.1,0,0,1-18.4,14.7Q449.6,46,434,46q-8,0-21.2-3a74.246,74.246,0,0,1-16.5-5.607,5.014,5.014,0,0,1-2.827-3.655,7.006,7.006,0,0,1,.628-4.314l4.138-9.684a6.978,6.978,0,0,1,3.656-3.64c2.566-.928,4.017-1.092,6.61-.073A64.9,64.9,0,0,0,432.2,20.8q10.2,0,16.5-4.7A14.831,14.831,0,0,0,455,3.6s.809-5.015-3.641-5.365S444.809,2.115,437.2,2.2q-22.6,0-36-13.2T387.8-48.4q0-24.2,13.6-37.9t37-13.7a38.162,38.162,0,0,1,13.8,2.7c4.667,1.8,8.45,7.575,13,7.7s-.373-7.168,5.2-7.2c3.383-.019,7.234-.007,11.084,0C483.469-96.8,484.977-96.606,485.84-95.233ZM440.6-22.8c4.4,0,8-.854,11.6-5.134S455-39.917,455-39.917v-16.46s1-8.867-2.8-13.473-7.067-4.95-12.4-4.95a16.918,16.918,0,0,0-14.2,7.2q-5.4,7.2-5.4,19,0,12,5.4,18.9T440.6-22.8Zm169-25.6q0,15.6-6.9,27A45.743,45.743,0,0,1,583.6-3.9q-12.2,6.1-27.8,6.1Q540,2.2,528-3.7a43.275,43.275,0,0,1-18.7-17.4q-6.7-11.5-6.7-27.7,0-15.6,6.9-27.2a46.151,46.151,0,0,1,19-17.8q12.1-6.2,27.7-6.2,15.8,0,27.9,6.1a44.223,44.223,0,0,1,18.8,17.7Q609.6-64.6,609.6-48.4ZM556-23.6q9.6,0,15.4-6.8t5.8-18q0-11.2-5.7-18.4A18.3,18.3,0,0,0,556.4-74q-9.8,0-15.6,6.9T535-48.8q0,11.4,5.7,18.3T556-23.6Z" transform="translate(735 591.516)"/>
    <path id="Tracé_3467" data-name="Tracé 3467" class="cls-2" d="M36.12,0h64.088a36.12,36.12,0,0,1,36.12,36.12v84.911L131.486,131.4l-10.5,4.93H36.12A36.12,36.12,0,0,1,0,100.208V36.12A36.12,36.12,0,0,1,36.12,0Z" transform="translate(577 592.285) rotate(-90)"/>
    <path id="Tracé_3469" data-name="Tracé 3469" class="cls-2" d="M24.641,0C38.167,0,49.59,10.892,49.59,24.418S38.167,48.983,24.641,48.983-36.4,9.469-35.316,9.463s-27.4-.076,9.176,0S8.9.355,24.641,0Z" transform="translate(663.719 446.516)"/>
    <circle id="Ellipse_69" data-name="Ellipse 69" class="cls-3" cx="8.557" cy="8.557" r="8.557" transform="translate(680.344 461.978)"/>
    <circle id="Ellipse_67" data-name="Ellipse 67" class="cls-3" cx="40.426" cy="40.426" r="40.426" transform="translate(604.738 483.695)"/>
    <circle id="Ellipse_68" data-name="Ellipse 68" class="cls-1" cx="28.623" cy="28.623" r="28.623" transform="translate(616.541 495.499)"/>
  </g>
</svg>
