<svg width="375" height="93" viewBox="0 0 375 93" fill="none" xmlns="http://www.w3.org/2000/svg">
<g clip-path="url(#clip0_647_796)">
<path d="M101.104 50.3612C101.82 49.902 103.307 49.9571 103.307 49.9571H108.846C113.538 50.0042 118.197 49.1615 122.574 47.4738C126.59 45.9569 130.095 43.3409 132.686 39.9267C135.227 36.5508 136.497 32.3958 136.497 27.4618C136.497 22.4628 135.308 18.2754 132.931 14.8995C130.528 11.5036 127.183 8.88067 123.307 7.35236C118.987 5.64428 114.372 4.80049 109.725 4.86911H90.0304C90.0304 4.86911 87.7035 4.84915 86.4153 5.80641C85.127 6.76368 85.2022 8.51558 85.2022 8.51558V69.342C85.1592 69.8168 85.2931 70.2909 85.5784 70.6737C85.9933 70.961 86.4903 71.1067 86.9951 71.089H98.6633C99.1658 71.1258 99.6643 70.9781 100.065 70.6737C100.51 70.2004 100.443 69.1959 100.443 69.1959V51.7942C100.43 51.52 100.483 51.2468 100.598 50.9974C100.713 50.748 100.887 50.5298 101.104 50.3612ZM109.237 17.1393C112.819 17.1393 115.604 18.0482 117.591 19.866C119.577 21.6838 120.571 24.3455 120.571 27.8513C120.506 30.9026 119.447 33.3209 117.395 35.1063C115.343 36.8916 112.689 37.7843 109.432 37.7843H101.935C101.525 37.7963 101.123 37.6689 100.796 37.423C100.553 37.089 100.429 36.684 100.443 36.2719V18.192C100.432 18.0349 100.458 17.8774 100.519 17.7323C100.581 17.5871 100.675 17.4584 100.796 17.3564C101.179 17.1846 101.598 17.1099 102.017 17.1393H109.237Z" fill="#656565"/>
<path d="M151.447 16.8481C152.565 16.8652 153.676 16.6537 154.709 16.2266C155.743 15.7995 156.677 15.1659 157.456 14.3648C158.253 13.6045 158.885 12.6894 159.314 11.6761C159.742 10.6628 159.958 9.57279 159.947 8.47322C159.964 7.35826 159.752 6.25162 159.324 5.22157C158.895 4.19152 158.259 3.25991 157.456 2.48421C156.677 1.68315 155.743 1.04952 154.709 0.622426C153.676 0.195332 152.565 -0.0161734 151.447 0.00096406C150.344 -0.00945495 149.25 0.205507 148.233 0.632598C147.216 1.05969 146.298 1.68985 145.535 2.48421C144.732 3.25991 144.096 4.19152 143.667 5.22157C143.239 6.25162 143.027 7.35826 143.044 8.47322C143.033 9.57279 143.249 10.6628 143.678 11.6761C144.106 12.6894 144.738 13.6045 145.535 14.3648C146.298 15.1592 147.216 15.7894 148.233 16.2164C149.25 16.6435 150.344 16.8585 151.447 16.8481ZM158.65 69.993C159.007 69.5264 159.19 68.9499 159.166 68.3633V27.268C159.166 27.268 159.263 25.4177 158.373 24.4439C157.483 23.4701 155.612 23.3727 155.612 23.3727H148.564C148.564 23.3727 146.175 23.454 144.99 24.736C143.805 26.0181 143.824 28.5008 143.824 28.5008V67.3938C143.824 67.3938 143.735 69.1569 144.508 69.9594C145.28 70.7618 146.926 70.6031 146.926 70.6031H156.929C157.551 70.5801 158.152 70.3671 158.65 69.993ZM222.239 69.7495C223.313 68.8838 223.709 67.1377 223.709 67.1377L237.37 25.3452C237.37 25.3452 237.731 24.4079 237.37 23.9146C237.01 23.4214 235.927 23.3727 235.927 23.3727H224.782C224.127 23.4076 223.489 23.5931 222.917 23.9146C222.478 24.2653 222.17 24.7523 222.042 25.2979L216.752 48.546C216.749 48.6407 216.727 48.7338 216.688 48.8201C216.649 48.9064 216.593 48.9841 216.523 49.0487C216.454 49.1133 216.372 49.1637 216.283 49.1968C216.194 49.23 216.099 49.2452 216.004 49.2418C215.909 49.2452 215.815 49.23 215.726 49.1968C215.636 49.1637 215.555 49.1133 215.485 49.0487C215.416 48.9841 215.36 48.9064 215.321 48.8201C215.281 48.7338 215.259 48.6407 215.256 48.546L209.485 25.6889C209.381 25.0136 209.059 24.3905 208.567 23.9151C207.949 23.5414 207.237 23.3532 206.515 23.3732H195.893C195.197 23.3921 194.517 23.578 193.909 23.9151C193.452 24.2922 193.143 24.8182 193.038 25.4002L188.543 46.9387C188.543 46.9387 188.439 47.523 187.191 47.9325C185.943 48.342 185.481 46.9387 185.481 46.9387L180.704 25.7532C180.704 25.7532 180.551 23.7539 179.466 22.9608C178.38 22.1676 176.362 22.581 176.362 22.581L169.459 24.5807C169.459 24.5807 167.256 25.1163 166.521 26.4368C165.786 27.7573 166.521 29.8545 166.521 29.8545L178.399 66.9025C178.399 66.9025 178.712 68.8278 179.934 69.7534C181.155 70.679 183.284 70.6031 183.284 70.6031H189.948C189.948 70.6031 191.716 70.5972 192.737 69.7514C193.757 68.9057 194.03 67.2195 194.03 67.2195L199.632 47.4748C199.674 47.1495 199.836 46.8513 200.085 46.6374C200.335 46.4235 200.655 46.3088 200.984 46.3155C201.316 46.3113 201.639 46.426 201.894 46.6387C202.149 46.8513 202.319 47.148 202.373 47.4748L208.01 66.8733C208.01 66.8733 208.239 68.821 209.52 69.7514C210.802 70.6819 213.139 70.6031 213.139 70.6031H219.402C219.402 70.6031 221.161 70.6172 222.239 69.7514V69.7495ZM251.694 16.8481C252.813 16.8652 253.923 16.6538 254.957 16.2267C255.99 15.7996 256.925 15.1659 257.703 14.3648C258.5 13.6045 259.133 12.6894 259.561 11.6761C259.99 10.6628 260.205 9.57279 260.195 8.47322C260.212 7.35826 260 6.25162 259.571 5.22157C259.143 4.19152 258.507 3.25991 257.703 2.48421C256.925 1.68315 255.99 1.04952 254.957 0.622426C253.923 0.195332 252.813 -0.0161734 251.694 0.00096406C250.591 -0.00945495 249.497 0.205507 248.481 0.632598C247.464 1.05969 246.546 1.68985 245.783 2.48421C244.979 3.25991 244.344 4.19152 243.915 5.22157C243.486 6.25162 243.274 7.35826 243.291 8.47322C243.281 9.57279 243.497 10.6628 243.925 11.6761C244.354 12.6894 244.986 13.6045 245.783 14.3648C246.546 15.1592 247.464 15.7894 248.481 16.2164C249.497 16.6435 250.591 16.8585 251.694 16.8481ZM258.595 69.7514C259.54 68.9101 259.413 67.2385 259.413 67.2385V26.5688C259.413 26.5688 259.359 25.0798 258.66 24.2803C258.1 23.7594 257.381 23.44 256.617 23.3727H247.5C247.5 23.3727 245.763 23.4759 244.906 24.3358C244.049 25.1957 244.076 26.8113 244.076 26.8113V66.5617C244.076 66.5617 243.926 68.7397 244.717 69.749C245.509 70.7584 247.241 70.6031 247.241 70.6031H255.636C255.636 70.6031 257.651 70.5928 258.595 69.7514ZM314.54 24.2331C314.961 24.9016 314.961 27.5952 314.961 27.5952L314.813 72.4533C314.896 76.3267 313.788 80.1326 311.638 83.3601C309.406 86.5689 306.281 89.0569 302.649 90.5177C298.773 92.1732 294.295 93.001 289.214 93.001C286.608 93.001 283.156 92.5141 278.857 91.5402C276.072 90.9487 273.366 90.0324 270.796 88.8101C270.439 88.6456 270.128 88.398 269.888 88.0883C269.647 87.7786 269.485 87.4157 269.415 87.0305C269.29 86.3156 269.398 85.5798 269.722 84.9299L271.743 80.2147C272.09 79.4182 272.729 78.784 273.529 78.4423C274.783 77.9905 275.492 77.9106 276.759 78.4068C280.437 79.8971 284.364 80.6854 288.334 80.7308C291.656 80.7308 294.343 79.968 296.395 78.4423C297.371 77.7588 298.163 76.8456 298.7 75.7838C299.237 74.722 299.502 73.5446 299.473 72.3559C299.473 72.3559 299.868 69.9141 297.694 69.7437C295.52 69.5732 294.494 71.6329 290.777 71.6743C283.417 71.6743 277.554 69.5319 273.19 65.247C268.826 60.9622 266.643 54.8921 266.643 47.0366C266.643 39.1811 268.858 33.0298 273.288 28.5826C277.717 24.1355 283.742 21.912 291.363 21.912C293.673 21.9302 295.959 22.376 298.105 23.2266C300.385 24.1031 302.233 26.915 304.456 26.9758C306.679 27.0367 304.274 23.4857 306.997 23.4701C308.649 23.4608 310.531 23.4667 312.411 23.4701C313.381 23.4701 314.118 23.5645 314.54 24.2331ZM292.438 59.5015C294.588 59.5015 296.346 59.0857 298.105 57.0017C299.864 54.9177 299.473 51.167 299.473 51.167V43.1525C299.473 43.1525 299.962 38.835 298.105 36.5923C296.249 34.3496 294.653 34.1821 292.047 34.1821C290.691 34.1542 289.349 34.4594 288.139 35.0708C286.929 35.6822 285.889 36.581 285.11 37.6879C283.351 40.0251 282.472 43.1088 282.472 46.9392C282.472 50.8345 283.351 53.902 285.11 56.1418C286.869 58.3816 289.312 59.5015 292.438 59.5015ZM375.001 47.0366C375.001 52.1004 373.877 56.4826 371.63 60.1832C369.408 63.8603 366.168 66.8192 362.299 68.7041C358.325 70.6842 353.798 71.6743 348.717 71.6743C343.572 71.6743 339.044 70.7167 335.136 68.8015C331.305 66.9579 328.121 64.0051 326.001 60.3292C323.818 56.5963 322.727 52.1004 322.727 46.8418C322.727 41.7779 323.851 37.3633 326.098 33.5978C328.294 29.8808 331.516 26.8721 335.38 24.9308C339.321 22.9182 343.832 21.912 348.913 21.912C354.059 21.912 358.602 22.902 362.543 24.8821C366.397 26.7803 369.594 29.781 371.728 33.5004C373.91 37.2659 375.001 41.7779 375.001 47.0366ZM348.815 59.112C351.942 59.112 354.45 58.0083 356.339 55.801C358.228 53.5936 359.172 50.6722 359.172 47.0366C359.172 43.401 358.244 40.4146 356.387 38.0774C355.526 36.9507 354.407 36.0449 353.124 35.4352C351.842 34.8255 350.431 34.5295 349.011 34.5716C345.819 34.5716 343.278 35.6915 341.389 37.9313C339.5 40.1711 338.556 43.1413 338.556 46.8418C338.556 50.5423 339.484 53.5125 341.341 55.7523C343.197 57.9921 345.689 59.112 348.815 59.112Z" fill="#656565"/>
<path d="M0 53.3893L0 22.1842C0 19.8746 0.456425 17.5876 1.34321 15.4538C2.23 13.3201 3.52979 11.3813 5.16837 9.74813C6.80694 8.11501 8.75221 6.81955 10.8931 5.93571C13.034 5.05186 15.3286 4.59695 17.6459 4.59695H59.128L64.1936 6.95458L66.6021 12.0671V53.3893C66.6021 55.699 66.1456 57.9861 65.2588 60.1199C64.3719 62.2537 63.072 64.1926 61.4334 65.8257C59.7947 67.4589 57.8493 68.7543 55.7083 69.6381C53.5673 70.5219 51.2726 70.9767 48.9552 70.9766H17.6459C12.9659 70.9766 8.47762 69.1236 5.16837 65.8254C1.85912 62.5271 0 58.0538 0 53.3893H0Z" fill="#FF7700"/>
<path d="M54.4037 0C61.0117 0 66.5922 5.30343 66.5922 11.8894C66.5922 18.4754 61.0117 23.8504 54.4037 23.8504C47.7958 23.8504 24.583 4.61056 25.1126 4.60764C25.6422 4.60472 11.7267 4.57063 29.5954 4.60764C47.4641 4.64464 46.7137 0.172853 54.4037 0Z" fill="#FF7700"/>
<path d="M54.6677 15.8623C56.9765 15.8623 58.8481 13.9969 58.8481 11.6958C58.8481 9.3947 56.9765 7.5293 54.6677 7.5293C52.3589 7.5293 50.4873 9.3947 50.4873 11.6958C50.4873 13.9969 52.3589 15.8623 54.6677 15.8623Z" fill="white"/>
<path d="M33.3003 57.4712C44.2077 57.4712 53.0499 48.6585 53.0499 37.7874C53.0499 26.9163 44.2077 18.1035 33.3003 18.1035C22.393 18.1035 13.5508 26.9163 13.5508 37.7874C13.5508 48.6585 22.393 57.4712 33.3003 57.4712Z" fill="white"/>
<path d="M33.3007 51.7253C41.0235 51.7253 47.2841 45.4855 47.2841 37.7884C47.2841 30.0913 41.0235 23.8516 33.3007 23.8516C25.5779 23.8516 19.3174 30.0913 19.3174 37.7884C19.3174 45.4855 25.5779 51.7253 33.3007 51.7253Z" fill="#3C3C3C"/>
</g>
<defs>
<clipPath id="clip0_647_796">
<rect width="375" height="93" fill="white"/>
</clipPath>
</defs>
</svg>
