<?xml version="1.0" encoding="UTF-8"?>
<!-- Generator: Adobe Illustrator 23.0.1, SVG Export Plug-In . SVG Version: 6.00 Build 0)  -->
<svg version="1.1" id="Layer_1" xmlns="http://www.w3.org/2000/svg" xmlns:xlink="http://www.w3.org/1999/xlink" x="0px" y="0px" viewBox="0 0 767.6 191" style="enable-background:new 0 0 767.6 191;" xml:space="preserve">
<style type="text/css">
	.st0{fill:#656565;}
</style>
<g id="Symbole_24_1" transform="translate(-577 -446.516)">
	<path id="Tracé_3456" class="st0" d="M767.9,549.6c1.3-0.8,3.9-0.7,3.9-0.7h9.7c8.2,0.1,16.4-1.4,24.1-4.4   c7-2.7,13.2-7.3,17.8-13.3c4.5-5.9,6.7-13.3,6.7-22c0-8.8-2.1-16.2-6.3-22.2c-4.2-6-10.1-10.7-16.9-13.3c-7.6-3-15.7-4.5-23.9-4.4   h-34.6c0,0-4.1,0-6.4,1.6c-2.2,1.7-2.1,4.8-2.1,4.8v107.3c-0.1,0.9,0.2,1.6,0.7,2.3c0.7,0.5,1.6,0.8,2.5,0.8h20.5   c0.9,0.1,1.7-0.2,2.5-0.8c0.8-0.9,0.7-2.6,0.7-2.6v-30.7C766.6,551.2,767.1,550.2,767.9,549.6z M782.1,491c6.3,0,11.2,1.6,14.7,4.8   c3.5,3.2,5.2,7.9,5.2,14.1c-0.1,5.4-2,9.6-5.6,12.8s-8.2,4.7-14,4.7h-13.1c-0.7,0-1.5-0.2-2-0.6c-0.4-0.6-0.7-1.3-0.6-2.1v-31.9   c0-0.6,0.2-1.1,0.6-1.5c0.7-0.3,1.4-0.4,2.1-0.3L782.1,491L782.1,491z"/>
	<path id="Tracé_3455" class="st0" d="M856.4,490.5c4,0.1,7.8-1.5,10.6-4.4c2.8-2.7,4.4-6.4,4.4-10.4c0.1-4-1.5-7.8-4.4-10.6   c-2.7-2.8-6.6-4.5-10.6-4.4c-4,0-7.6,1.5-10.4,4.4c-2.8,2.7-4.5,6.6-4.4,10.6c0,4,1.5,7.6,4.4,10.4   C848.7,489,852.4,490.6,856.4,490.5z M869,584.3c0.6-0.9,0.9-1.8,0.9-2.8V509c0,0,0.2-3.3-1.4-5c-1.5-1.7-4.9-1.9-4.9-1.9h-12.4   c0,0-4.2,0.2-6.3,2.4c-2.1,2.2-2.1,6.6-2.1,6.6v68.6c0,0-0.2,3.1,1.2,4.6c1.4,1.4,4.2,1.1,4.2,1.1H866   C867.1,585.4,868.1,584.9,869,584.3z M980.9,583.9c1.9-1.5,2.6-4.6,2.6-4.6l24.1-73.7c0,0,0.6-1.6,0-2.5c-0.6-0.9-2.6-0.9-2.6-0.9   h-19.6c-1.1,0.1-2.2,0.4-3.3,0.9c-0.8,0.6-1.3,1.5-1.5,2.4l-9.3,41c0,0.7-0.6,1.3-1.3,1.2l0,0c-0.7,0-1.3-0.5-1.3-1.2l0,0   l-10.1-40.3c-0.2-1.2-0.8-2.3-1.6-3.1c-1.1-0.7-2.3-1-3.6-0.9h-18.7c-1.2,0-2.4,0.3-3.5,0.9c-0.8,0.7-1.4,1.6-1.5,2.6l-7.9,38   c0,0-0.2,1-2.4,1.7s-3-1.7-3-1.7l-8.4-37.4c0,0-0.3-3.5-2.1-4.9c-1.9-1.4-5.5-0.7-5.5-0.7l-12.1,3.5c0,0-3.9,0.9-5.2,3.3s0,6,0,6   l20.9,65.4c0,0,0.5,3.4,2.7,5.1s5.9,1.5,5.9,1.5H924c0,0,3.1,0,4.9-1.5c1.8-1.5,2.2-4.5,2.2-4.5l9.9-34.9c0.2-1.2,1.2-2.1,2.4-2.1   s2.2,0.9,2.4,2.1l9.9,34.2c0,0,0.4,3.4,2.7,5.1s6.4,1.5,6.4,1.5h11C975.9,585.4,979,585.4,980.9,583.9L980.9,583.9z M1032.7,490.5   c4,0.1,7.8-1.5,10.6-4.4c2.8-2.7,4.4-6.4,4.4-10.4c0.1-4-1.5-7.8-4.4-10.6c-2.7-2.8-6.6-4.5-10.6-4.4c-4,0-7.6,1.5-10.4,4.4   c-2.8,2.7-4.5,6.6-4.4,10.6c0,4,1.5,7.6,4.4,10.4C1025,489,1028.7,490.6,1032.7,490.5z M1044.8,583.9c1.6-1.5,1.5-4.5,1.5-4.5   v-71.7c0,0-0.1-2.7-1.3-4c-0.9-0.9-2.2-1.5-3.6-1.6h-16.1c0,0-3.1,0.2-4.6,1.7c-1.5,1.5-1.5,4.4-1.5,4.4v70.1c0,0-0.3,3.9,1.1,5.6   c1.4,1.8,4.5,1.5,4.5,1.5h14.8C1039.6,585.4,1043.1,585.4,1044.8,583.9z M1143.2,503.6c0.8,1.2,0.8,5.9,0.8,5.9l-0.3,79.1   c0.2,6.9-1.8,13.6-5.6,19.2c-4,5.7-9.5,10.1-15.8,12.6c-6.8,2.9-14.7,4.4-23.6,4.4c-4.6,0-10.7-0.9-18.2-2.6   c-4.9-1-9.6-2.7-14.2-4.8c-1.3-0.6-2.1-1.7-2.4-3.2c-0.3-1.3,0-2.6,0.5-3.7l3.5-8.3c0.6-1.4,1.7-2.5,3.2-3.1   c2.2-0.8,3.4-0.9,5.7-0.1c6.4,2.7,13.4,4,20.4,4.1c5.8,0,10.6-1.4,14.2-4c3.5-2.5,5.5-6.4,5.4-10.7c0,0,0.7-4.3-3.1-4.6   c-3.8-0.3-5.7,3.4-12.2,3.4c-13,0-23.3-3.8-30.9-11.3c-7.6-7.6-11.5-18.3-11.5-32.1c0-13.8,3.9-24.7,11.7-32.6   c7.8-7.8,18.4-11.8,31.8-11.8c4,0,8.1,0.9,11.9,2.3c4,1.5,7.3,6.5,11.2,6.6c4,0.1-0.3-6.2,4.5-6.2c2.9,0,6.2,0,9.5,0   C1141.2,502.2,1142.5,502.4,1143.2,503.6z M1104.3,565.8c3.8,0,6.9-0.8,10-4.4c3.1-3.7,2.4-10.3,2.4-10.3v-14.2   c0,0,0.9-7.6-2.4-11.6s-6.1-4.3-10.7-4.3c-4.8-0.1-9.5,2.2-12.2,6.2c-3.1,4.1-4.6,9.5-4.6,16.3c0,6.9,1.5,12.3,4.6,16.2   C1094.5,563.8,1098.8,565.8,1104.3,565.8z M1249.5,543.8c0,8.9-2,16.7-5.9,23.2c-3.9,6.5-9.6,11.7-16.4,15   c-7,3.5-14.9,5.2-23.9,5.2c-9,0-17-1.7-23.9-5.1c-6.7-3.3-12.4-8.5-16.1-14.9c-3.9-6.6-5.8-14.5-5.8-23.8c0-8.9,2-16.8,5.9-23.4   c3.9-6.5,9.5-11.9,16.3-15.3c7-3.5,14.9-5.3,23.8-5.3c9,0,17,1.7,24,5.2c6.8,3.4,12.4,8.7,16.2,15.2   C1247.6,526.5,1249.5,534.5,1249.5,543.8z M1203.5,565.1c5.5,0,9.9-2,13.2-5.8c3.4-3.9,5-9,5-15.5s-1.6-11.7-4.9-15.8   c-3.1-4-7.9-6.4-13-6.2c-5.6,0-10.1,2-13.4,5.9c-3.4,4-5,9.2-5,15.7s1.6,11.8,4.9,15.7C1193.6,563.1,1198,565.1,1203.5,565.1z"/>
	<path class="st0" d="M699.8,491.1l-9.6,1.2l-13.2-5.4L661.2,469H621c-17.1,0-31,13.9-31,31V555c0,17.1,13.9,31,31,31h55.1   c17.1,0,31-13.9,31-31v-72.9L699.8,491.1z M648.6,562.2c-19.2,0-34.7-15.5-34.7-34.7c0-19.2,15.5-34.7,34.7-34.7   s34.7,15.5,34.7,34.7C683.3,546.6,667.8,562.2,648.6,562.2z"/>
	<circle id="Ellipse_68" class="st0" cx="648.6" cy="527.5" r="24.6"/>
	<path class="st0" d="M685.7,460.8c-13.6,0.3-12.2,8.2-43.6,8.2c-31.4-0.1-7,0-7.9,0c-0.9,0,40,33.9,51.6,33.9s21.4-9.5,21.4-21.1   C707.1,470.2,697.3,460.8,685.7,460.8z M686.2,488.8c-4.1,0-7.4-3.3-7.4-7.4s3.3-7.4,7.4-7.4s7.4,3.3,7.4,7.4   S690.2,488.8,686.2,488.8z"/>
</g>
</svg>