<svg width="20" height="19" viewBox="0 0 20 19" fill="none" xmlns="http://www.w3.org/2000/svg">
<path d="M19.0828 3.2711C19.0828 3.25865 19.0828 3.24619 19.0828 3.23374C19.0828 1.55264 17.4884 0.195312 15.6004 0.195312C13.4606 0.23267 13.6005 1.31604 8.97125 1.36585H6.9853C5.43291 1.36585 5.81052 1.36585 6.36994 1.36585H5.08327C2.28616 1.36585 0.0205078 3.38317 0.0205078 5.87369V13.8558C0.0205078 16.3339 2.28616 18.3512 5.06928 18.3512H14.034C16.8171 18.3512 19.0828 16.3339 19.0828 13.8558V3.2711ZM9.55864 14.8894C6.43987 14.8894 3.90849 12.6354 3.90849 9.85851C3.90849 7.08159 6.43987 4.82767 9.55864 4.82767C12.6774 4.82767 15.2088 7.08159 15.2088 9.85851C15.2088 12.6354 12.6774 14.8894 9.55864 14.8894ZM15.6703 4.25485C15.013 4.25485 14.4676 3.78165 14.4676 3.18393C14.4676 2.59866 14.999 2.11301 15.6703 2.11301C16.3416 2.11301 16.8731 2.58621 16.8731 3.18393C16.8731 3.7692 16.3276 4.25485 15.6703 4.25485Z" fill="#AAAAAA"/>
<path d="M9.55863 13.4199C11.7677 13.4199 13.5585 11.8254 13.5585 9.85851C13.5585 7.89158 11.7677 6.29708 9.55863 6.29708C7.34957 6.29708 5.55877 7.89158 5.55877 9.85851C5.55877 11.8254 7.34957 13.4199 9.55863 13.4199Z" fill="#AAAAAA"/>
</svg>
