<svg width="143" height="32" viewBox="0 0 143 32" fill="none" xmlns="http://www.w3.org/2000/svg">
<path d="M38.5631 17.1521C38.8425 17.0028 39.4014 17.0194 39.4014 17.0194H41.5065C43.2949 17.036 45.0647 16.754 46.7414 16.1734C48.269 15.6592 49.6103 14.7635 50.5977 13.6024C51.5664 12.4578 52.0508 11.0313 52.0508 9.35597C52.0508 7.64746 51.6037 6.22093 50.6908 5.0764C49.778 3.91527 48.4925 3.01955 47.0208 2.50534C45.3814 1.92478 43.6116 1.64279 41.8418 1.65938H34.3342C34.3342 1.65938 33.44 1.65938 32.9556 1.97454C32.4712 2.30629 32.4899 2.90344 32.4899 2.90344V23.6212C32.4712 23.7871 32.5271 23.9364 32.6389 24.0691C32.7879 24.1686 32.9929 24.2183 33.1792 24.2183H37.6316C37.8179 24.2349 38.0042 24.1852 38.1718 24.0691C38.3395 23.9032 38.3209 23.5714 38.3209 23.5714V17.6497C38.2836 17.4507 38.3954 17.2682 38.5631 17.1521ZM41.6555 5.83942C43.0155 5.83942 44.0774 6.15458 44.8412 6.76832C45.605 7.38206 45.9776 8.29437 45.9776 9.48866C45.9589 10.5337 45.5491 11.3465 44.7667 11.9602C43.9842 12.5739 42.9782 12.8725 41.7301 12.8725H38.8798C38.7307 12.8725 38.5631 12.8393 38.4513 12.7564C38.3581 12.6403 38.3022 12.5076 38.3209 12.3583V6.20435C38.3209 6.08823 38.3581 5.98871 38.4513 5.92236C38.6003 5.85601 38.7494 5.83942 38.917 5.85601H41.6555V5.83942Z" fill="#AAAAAA"/>
<path d="M57.7514 5.73989C58.6083 5.75648 59.4467 5.44131 60.0428 4.89393C60.6576 4.36313 60.9929 3.64987 60.9929 2.88684C61.0115 2.12382 60.6576 1.37738 60.0428 0.846585C59.4467 0.299198 58.6083 -0.0159639 57.7514 0.000623594C56.8944 0.000623594 56.0934 0.299198 55.4972 0.846585C54.8825 1.37738 54.5285 2.12382 54.5471 2.88684C54.5471 3.64987 54.8825 4.36313 55.4972 4.89393C56.0934 5.44131 56.8944 5.73989 57.7514 5.73989ZM60.4899 23.8368C60.6203 23.6709 60.6948 23.4885 60.6948 23.2894V9.28961C60.6948 9.28961 60.7321 8.65928 60.3968 8.32753C60.0614 7.99579 59.3349 7.96261 59.3349 7.96261H56.6523C56.6523 7.96261 55.7394 7.99579 55.2923 8.42706C54.8452 8.85833 54.8452 9.7043 54.8452 9.7043V22.9577C54.8452 22.9577 54.8079 23.5548 55.106 23.8368C55.4041 24.1022 56.0189 24.0525 56.0189 24.0525H59.8379C60.0801 24.0525 60.3036 23.9695 60.4899 23.8368ZM84.7455 23.7539C85.1553 23.4553 85.3043 22.8582 85.3043 22.8582L90.5206 8.62611C90.5206 8.62611 90.651 8.31095 90.5206 8.14507C90.3902 7.9792 89.9617 7.96261 89.9617 7.96261H85.7142C85.472 7.9792 85.2298 8.04555 85.0063 8.14507C84.8386 8.26118 84.7268 8.42706 84.6709 8.60952L82.659 16.5217C82.659 16.6544 82.5286 16.7706 82.3795 16.754C82.2305 16.754 82.1001 16.6544 82.1001 16.5217L79.9018 8.74222C79.8645 8.51 79.7341 8.29436 79.5478 8.14507C79.3057 8.01237 79.0448 7.94602 78.7654 7.96261H74.7042C74.4434 7.96261 74.1826 8.02896 73.9404 8.14507C73.7727 8.27777 73.6423 8.46023 73.605 8.65928L71.8911 15.9909C71.8911 15.9909 71.8539 16.19 71.3695 16.3227C70.8852 16.4554 70.7175 15.9909 70.7175 15.9909L68.8918 8.7754C68.8918 8.7754 68.8359 8.09531 68.4261 7.82991C68.0162 7.56451 67.2338 7.69721 67.2338 7.69721L64.607 8.3773C64.607 8.3773 63.7687 8.55976 63.4893 9.00762C63.2098 9.45548 63.4893 10.1687 63.4893 10.1687L68.0162 22.7918C68.0162 22.7918 68.128 23.4553 68.5937 23.7705C69.0595 24.0856 69.8792 24.0525 69.8792 24.0525H72.4128C72.4128 24.0525 73.0834 24.0525 73.4746 23.7705C73.8659 23.4885 73.959 22.9079 73.959 22.9079L76.1014 16.1734C76.1387 15.9412 76.3622 15.7753 76.623 15.7753C76.8838 15.7753 77.1074 15.9412 77.1446 16.1734L79.287 22.7752C79.287 22.7752 79.3802 23.4387 79.8645 23.7539C80.3489 24.069 81.2431 24.0359 81.2431 24.0359H83.6277C83.6649 24.0525 84.3356 24.0525 84.7455 23.7539ZM95.979 5.73989C96.836 5.75648 97.6743 5.44131 98.2704 4.89393C98.8852 4.36313 99.2205 3.64987 99.2205 2.88684C99.2392 2.12382 98.8852 1.37738 98.2704 0.846585C97.6743 0.299198 96.836 -0.0159639 95.979 0.000623594C95.1221 0.000623594 94.321 0.299198 93.7248 0.846585C93.1101 1.37738 92.7561 2.12382 92.7747 2.88684C92.7747 3.64987 93.1101 4.36313 93.7248 4.89393C94.321 5.44131 95.1221 5.73989 95.979 5.73989ZM98.6058 23.7705C98.9597 23.4885 98.9225 22.9079 98.9225 22.9079V9.05738C98.9225 9.05738 98.9038 8.54317 98.643 8.27777C98.4381 8.09531 98.1587 7.99579 97.8606 7.96261H94.3769C94.3769 7.96261 93.7062 7.99579 93.3895 8.29436C93.0728 8.59293 93.0728 9.14032 93.0728 9.14032V22.6757C93.0728 22.6757 93.0169 23.4221 93.315 23.7539C93.6131 24.0856 94.2837 24.0525 94.2837 24.0525H97.488C97.488 24.0525 98.2518 24.0525 98.6058 23.7705ZM119.936 8.26118C120.104 8.49341 120.104 9.40572 120.104 9.40572L120.048 24.6828C120.086 26.0098 119.657 27.3036 118.837 28.3984C117.98 29.4931 116.788 30.3391 115.41 30.8367C113.938 31.4007 112.224 31.6827 110.286 31.6827C109.299 31.6827 107.976 31.5168 106.337 31.1851C105.275 30.986 104.25 30.6709 103.263 30.2562C102.984 30.1401 102.797 29.9244 102.742 29.6424C102.686 29.3936 102.741 29.1448 102.853 28.9292L103.617 27.3202C103.747 27.0548 103.99 26.8392 104.306 26.723C104.791 26.5738 105.052 26.5406 105.536 26.7065C106.933 27.2207 108.442 27.4861 109.951 27.5027C111.218 27.5027 112.243 27.2373 113.025 26.723C113.789 26.242 114.217 25.479 114.199 24.6496C114.199 24.6496 114.348 23.8202 113.528 23.7539C112.708 23.6875 112.298 24.4008 110.883 24.4174C108.07 24.4174 105.834 23.6875 104.176 22.2278C102.518 20.7681 101.68 18.6947 101.68 16.0241C101.68 13.3535 102.518 11.2469 104.213 9.73747C105.909 8.22801 108.2 7.46499 111.106 7.46499C111.982 7.46499 112.857 7.63086 113.677 7.91285C114.553 8.21142 115.26 9.1735 116.099 9.19008C116.956 9.20667 116.024 7.99579 117.068 7.99579C117.701 7.99579 118.409 7.99579 119.135 7.99579C119.508 7.99579 119.787 8.02896 119.936 8.26118ZM111.516 20.2705C112.336 20.2705 113.006 20.1212 113.677 19.4246C114.348 18.7279 114.199 17.4341 114.199 17.4341V14.6971C114.199 14.6971 114.385 13.2208 113.677 12.4578C112.969 11.6948 112.354 11.645 111.367 11.645C110.324 11.6284 109.318 12.0763 108.722 12.8393C108.051 13.6355 107.716 14.6805 107.716 15.9909C107.716 17.3179 108.051 18.363 108.722 19.126C109.392 19.889 110.324 20.2705 111.516 20.2705ZM143 16.0241C143 17.7492 142.571 19.2421 141.714 20.5027C140.876 21.7634 139.628 22.7586 138.156 23.4055C136.647 24.0856 134.915 24.4174 132.977 24.4174C131.021 24.4174 129.288 24.0856 127.798 23.4387C126.345 22.8084 125.115 21.7966 124.314 20.5525C123.476 19.2753 123.066 17.7492 123.066 15.9578C123.066 14.2327 123.495 12.7232 124.352 11.446C125.19 10.1853 126.42 9.15691 127.891 8.49341C129.4 7.81332 131.114 7.46499 133.052 7.46499C135.008 7.46499 136.74 7.79674 138.249 8.47682C139.721 9.12373 140.932 10.1522 141.752 11.4128C142.59 12.69 143 14.2327 143 16.0241ZM133.014 20.1378C134.207 20.1378 135.157 19.7563 135.883 19.0099C136.61 18.2634 136.964 17.2682 136.964 16.0241C136.964 14.7801 136.61 13.7682 135.902 12.972C135.231 12.1924 134.188 11.7446 133.089 11.7777C131.878 11.7777 130.909 12.1592 130.183 12.9223C129.456 13.6853 129.102 14.6971 129.102 15.9578C129.102 17.2184 129.456 18.2303 130.164 18.9933C130.872 19.7563 131.822 20.1378 133.014 20.1378Z" fill="#AAAAAA"/>
<path d="M25.3919 4.09808C25.3919 4.08149 25.3919 4.06491 25.3919 4.04832C25.3919 1.80901 23.2682 0.000976562 20.7532 0.000976562C17.9029 0.050739 18.0892 1.49385 11.9228 1.5602H9.27746C7.20959 1.5602 7.71259 1.5602 8.45777 1.5602H6.74386C3.01797 1.5602 0 4.24737 0 7.56486V18.1974C0 21.4983 3.01797 24.1855 6.72523 24.1855H18.6667C22.374 24.1855 25.3919 21.4983 25.3919 18.1974V4.09808ZM12.7053 19.5742C8.55091 19.5742 5.17899 16.5719 5.17899 12.8729C5.17899 9.17385 8.55091 6.17152 12.7053 6.17152C16.8596 6.17152 20.2316 9.17385 20.2316 12.8729C20.2316 16.5719 16.8596 19.5742 12.7053 19.5742ZM20.8463 5.40849C19.9708 5.40849 19.2442 4.77817 19.2442 3.98197C19.2442 3.20236 19.9521 2.55545 20.8463 2.55545C21.7406 2.55545 22.4485 3.18577 22.4485 3.98197C22.4485 4.76158 21.7219 5.40849 20.8463 5.40849Z" fill="#AAAAAA"/>
<path d="M12.7053 17.6169C15.6479 17.6169 18.0333 15.4929 18.0333 12.8729C18.0333 10.2528 15.6479 8.12884 12.7053 8.12884C9.76269 8.12884 7.37725 10.2528 7.37725 12.8729C7.37725 15.4929 9.76269 17.6169 12.7053 17.6169Z" fill="#AAAAAA"/>
</svg>
