<?xml version="1.0" encoding="UTF-8" standalone="no"?>
<svg
   version="1.1"
   id="Layer_1"
   x="0px"
   y="0px"
   viewBox="0 0 117.19922 125.20118"
   xml:space="preserve"
   sodipodi:docname="piwigo-logo-minimal.svg"
   width="117.19922"
   height="125.20118"
   inkscape:version="1.1 (c68e22c387, 2021-05-23)"
   xmlns:inkscape="http://www.inkscape.org/namespaces/inkscape"
   xmlns:sodipodi="http://sodipodi.sourceforge.net/DTD/sodipodi-0.dtd"
   xmlns="http://www.w3.org/2000/svg"
   xmlns:svg="http://www.w3.org/2000/svg"
   xmlns:rdf="http://www.w3.org/1999/02/22-rdf-syntax-ns#"
   xmlns:cc="http://creativecommons.org/ns#"
   xmlns:dc="http://purl.org/dc/elements/1.1/"><metadata
   id="metadata950"><rdf:RDF><cc:Work
       rdf:about=""><dc:format>image/svg+xml</dc:format><dc:type
         rdf:resource="http://purl.org/dc/dcmitype/StillImage" /><dc:title /></cc:Work></rdf:RDF></metadata><defs
   id="defs948" /><sodipodi:namedview
   pagecolor="#ffffff"
   bordercolor="#666666"
   borderopacity="1"
   objecttolerance="10"
   gridtolerance="10"
   guidetolerance="10"
   inkscape:pageopacity="0"
   inkscape:pageshadow="2"
   inkscape:window-width="1920"
   inkscape:window-height="1017"
   id="namedview946"
   showgrid="false"
   fit-margin-top="0"
   fit-margin-left="0"
   fit-margin-right="0"
   fit-margin-bottom="0"
   inkscape:zoom="1.5789474"
   inkscape:cx="113.68333"
   inkscape:cy="114"
   inkscape:window-x="1912"
   inkscape:window-y="-8"
   inkscape:window-maximized="1"
   inkscape:current-layer="Symbole_24_1"
   inkscape:pagecheckerboard="0" />
<style
   type="text/css"
   id="style935">
	.st0{fill:#656565;}
</style>
<g
   id="Symbole_24_1"
   transform="translate(-590,-460.7992)">
	
	
	
	<path
   id="Ellipse_68"
   style="fill:#ffffff;fill-opacity:1"
   d="m 108.69922,14.283203 c -13.600002,0.3 -12.199611,8.201172 -43.599611,8.201172 -31.4,-0.1 -7.00039,0 -7.90039,0 H 44 c -17.1,0 -31,13.9 -31,31 v 55.000005 c 0,17.09999 13.9,31 31,31 h 55.099609 c 17.100001,0 31.000001,-13.90001 31.000001,-31 V 37.283203 c 0.0647,-0.658884 0.0996,-1.325459 0.0996,-2 -0.1,-11.6 -9.9,-21 -21.5,-21 z m 0.5,13.201172 c 4.1,0 7.40039,3.300391 7.40039,7.400391 0,4.1 -3.40039,7.398437 -7.40039,7.398437 -4.1,0 -7.39844,-3.298437 -7.39844,-7.398437 0,-4.1 3.29844,-7.400391 7.39844,-7.400391 z M 71.599609,46.283203 c 19.2,0 34.701171,15.501172 34.701171,34.701172 0,19.100005 -15.501171,34.699215 -34.701171,34.699215 -19.2,0 -34.699218,-15.49921 -34.699218,-34.699215 0,-19.2 15.499218,-34.701172 34.699218,-34.701172 z M 71.328125,56.384766 A 24.6,24.6 0 0 0 47,80.984375 24.6,24.6 0 0 0 71.599609,105.58398 24.6,24.6 0 0 0 96.199219,80.984375 24.6,24.6 0 0 0 71.599609,56.384766 a 24.6,24.6 0 0 0 -0.271484,0 z"
   transform="translate(577,446.516)" />
	
</g>
</svg>
