<?xml version="1.0" encoding="UTF-8" standalone="no"?>
<!-- Created with Inkscape (http://www.inkscape.org/) -->

<svg
   width="45.746754"
   height="72.061806"
   viewBox="0 0 12.103829 19.066352"
   version="1.1"
   id="svg14427"
   xmlns="http://www.w3.org/2000/svg"
   xmlns:svg="http://www.w3.org/2000/svg">
  <defs
     id="defs14424" />
  <g
     id="layer1"
     transform="translate(-44.571001,-119.90368)"
     style="fill:#ffa744;fill-opacity:1">
    <path
       id="path11018"
       style="fill:#ffa744;fill-opacity:1;stroke-width:0.0887824"
       class="cls-2"
       d="m 54.457973,119.90368 c -1.374746,0.031 -1.272563,0.81873 -4.359689,0.83804 h -1.340617 c -0.02415,1e-4 -0.376483,-5.3e-4 -0.203744,0 h -0.775965 a 3.2068395,3.2068395 0 0 0 -3.206957,3.20696 v 5.68991 a 3.2068395,3.2068395 0 0 0 2.701652,3.157 v 5.6355 a 0.53894602,0.53894602 0 0 0 0.808416,0.46674 l 1.733338,-1.00086 a 1.6168338,1.6168338 0 0 1 1.616926,0 l 1.733428,1.00086 a 0.53894928,0.53894928 0 0 0 0.808418,-0.46674 v -5.6355 a 3.2068395,3.2068395 0 0 0 2.701651,-3.157 v -7.53474 l -0.0024,-0.005 c 9.5e-5,-0.009 7.07e-4,-0.018 7.07e-4,-0.0271 0,-1.20088 -1.014247,-2.1679 -2.215125,-2.1679 z m 0.04804,1.3727 a 0.75971554,0.75971554 0 0 1 0.759645,0.75965 0.75971554,0.75971554 0 0 1 -0.759645,0.75964 0.75971554,0.75971554 0 0 1 -0.759645,-0.75964 0.75971554,0.75971554 0 0 1 0.759645,-0.75965 z m -3.88319,1.92806 a 3.5891384,3.5891384 0 0 1 3.589287,3.58911 3.5891384,3.5891384 0 0 1 -3.589287,3.5891 3.5891384,3.5891384 0 0 1 -3.589106,-3.5891 3.5891384,3.5891384 0 0 1 3.589106,-3.58911 z m 0,1.04808 a 2.5412337,2.5412337 0 0 0 -2.541299,2.54121 2.5412337,2.5412337 0 0 0 2.541299,2.54121 2.5412337,2.5412337 0 0 0 2.541208,-2.54121 2.5412337,2.5412337 0 0 0 -2.541208,-2.54121 z" />
  </g>
</svg>
