<?xml version="1.0" encoding="UTF-8" standalone="no"?>
<!-- Created with Inkscape (http://www.inkscape.org/) -->

<svg
   width="64.861732"
   height="65.720177"
   viewBox="0 0 17.161334 17.388463"
   version="1.1"
   id="svg14427"
   sodipodi:docname="ghost.svg"
   inkscape:version="1.1 (c68e22c387, 2021-05-23)"
   xmlns:inkscape="http://www.inkscape.org/namespaces/inkscape"
   xmlns:sodipodi="http://sodipodi.sourceforge.net/DTD/sodipodi-0.dtd"
   xmlns="http://www.w3.org/2000/svg"
   xmlns:svg="http://www.w3.org/2000/svg">
  <sodipodi:namedview
     id="namedview6"
     pagecolor="#505050"
     bordercolor="#eeeeee"
     borderopacity="1"
     inkscape:pageshadow="0"
     inkscape:pageopacity="0"
     inkscape:pagecheckerboard="0"
     showgrid="false"
     fit-margin-top="0"
     fit-margin-left="0"
     fit-margin-right="0"
     fit-margin-bottom="0"
     inkscape:zoom="6.6332529"
     inkscape:cx="56.759482"
     inkscape:cy="36.935121"
     inkscape:window-width="1920"
     inkscape:window-height="1017"
     inkscape:window-x="1912"
     inkscape:window-y="-8"
     inkscape:window-maximized="1"
     inkscape:current-layer="svg14427" />
  <defs
     id="defs14424" />
  <path
     id="path2"
     style="fill:#acacac;fill-opacity:1;stroke-width:0.0762726"
     d="M 12.094073,0 C 10.726372,0.03084165 10.824171,0.81277311 7.7670868,0.83542439 H 6.2642761 c 0.020075,1.3789e-4 -0.2266159,-3.1689e-4 -0.1282594,0 h -0.702841 c -0.4199119,0 -0.8356949,0.0827132 -1.2236405,0.24341701 C 3.8215814,1.2395337 3.4690358,1.4750785 3.1721074,1.7720004 2.8751843,2.0689302 2.6396407,2.4214745 2.4789485,2.8094283 2.3182497,3.1973741 2.2355315,3.6131571 2.2355315,4.0330691 v 4.641909 C 1.8894314,15.435237 0.23342124,14.363047 0.02243034,15.924462 c -0.22132,1.637728 1.23934546,1.901422 2.43447156,0.39641 0.3495808,-0.440171 0.9738218,-1.327908 2.3017365,0 0.3078291,0.307836 1.416356,1.547159 2.213101,0.354102 1.2784834,-1.914522 2.3017317,-1.062326 2.8772097,0 0.5754009,1.062326 1.5935139,1.060287 2.6558399,-0.843023 1.062327,-1.903386 2.122178,0.577441 2.788574,0.843023 1.327906,0.52918 2.390277,-0.531111 1.593532,-2.036125 -0.391812,-0.739997 -0.841045,-0.796838 -1.726266,-2.611595 -0.583028,-1.195116 -0.841086,-2.6569901 -0.841086,-3.939515 0,-0.1070574 -0.006,-0.2086055 -0.01505,-0.3076237 V 2.1937342 l -0.0024,-0.00504 c 1.52e-4,-0.00901 7.49e-4,-0.017927 7.49e-4,-0.026957 C 14.30282,0.96431718 13.291446,3.146e-5 12.09404,3.146e-5 Z m 0.04783,1.3687371 c 0.418356,0 0.757365,0.3391429 0.757365,0.757514 0,0.4183713 -0.339009,0.7575128 -0.757365,0.7575128 -0.418432,0 -0.757513,-0.3391415 -0.757513,-0.7575128 0,-0.4183711 0.339081,-0.757514 0.757513,-0.757514 z M 8.2700164,3.2910488 c 1.9765316,0 3.5787106,1.6023128 3.5787106,3.5788585 0,1.9765312 -1.602179,3.5787097 -3.5787106,3.5787097 -1.9765312,0 -3.5788587,-1.6021785 -3.5788587,-3.5787097 0,-1.9765457 1.6023275,-3.5788585 3.5788587,-3.5788585 z m -1.522e-4,1.0450256 c -1.3994528,0 -2.5339828,1.13442 -2.5339828,2.5338329 0,1.3994514 1.13453,2.5339828 2.5339828,2.5339828 1.3994514,0 2.5338328,-1.1345314 2.5338328,-2.5339828 0,-1.3994129 -1.1343814,-2.5338329 -2.5338328,-2.5338329 z" />
</svg>
