<?xml version="1.0" encoding="UTF-8" standalone="no"?>
<!-- Created with Inkscape (http://www.inkscape.org/) -->

<svg
   width="45.613075"
   height="49.295925"
   viewBox="0 0 12.06846 13.042879"
   version="1.1"
   id="svg14427"
   xmlns="http://www.w3.org/2000/svg"
   xmlns:svg="http://www.w3.org/2000/svg">
  <defs
     id="defs14424" />
  <g
     id="layer1"
     transform="translate(-51.823864,-123.68477)"
     style="fill:#ff5252;fill-opacity:1">
    <path
       id="path825"
       style="fill:#ff5252;fill-opacity:1;stroke-width:0.0749591"
       d="m 61.674738,123.68477 c -1.082895,0.0248 -1.247155,0.52689 -2.772666,0.74953 h -3.880731 c -0.4199,0 -0.835626,0.0843 -1.223564,0.24796 -0.387937,0.16368 -0.74041,0.40359 -1.037323,0.70604 -0.296913,0.30245 -0.532499,0.66158 -0.693191,1.05674 -0.160689,0.39517 -0.243399,0.81869 -0.243399,1.24645 v 5.77907 c 0,0.86383 0.336947,1.69233 0.93659,2.30309 0.599645,0.61085 1.412866,0.954 2.260887,0.954 h 5.673322 c 0.419923,0 0.83567,-0.0842 1.223658,-0.24786 0.387987,-0.16364 0.7405,-0.40359 1.037413,-0.70605 0.296989,-0.30245 0.532476,-0.66155 0.693189,-1.05674 0.160713,-0.39518 0.2434,-0.81865 0.2434,-1.24644 v -7.58114 -0.0717 l -0.0019,-0.004 c -0.04108,-1.18579 -1.038452,-2.1288 -2.215675,-2.1288 z m 0.04376,1.42421 c 0.413999,0 0.749616,0.33564 0.749616,0.74962 0,0.41399 -0.335617,0.74953 -0.749616,0.74953 -0.414,0 -0.74962,-0.33554 -0.74962,-0.74953 0,-0.41398 0.33562,-0.74962 0.74962,-0.74962 z m -5.008303,1.49933 c 0.04527,-5.3e-4 0.09009,0.002 0.13419,0.008 h 2.055409 c 0.180131,0 0.346499,0.0678 0.471121,0.17895 7.4e-5,9e-5 1.76e-4,1.8e-4 3.53e-4,3.5e-4 v -1.7e-4 c 0.306372,0.20993 0.464709,0.5935 0.371755,0.96986 l -0.940509,3.80899 c -0.09032,0.36569 -0.393385,0.62863 -0.749619,0.68608 -0.0152,0.005 -0.03052,0.009 -0.04586,0.0134 -0.49186,0.13043 -1.000315,-0.16107 -1.131858,-0.64698 l -1.046711,-3.86669 h 7.5e-5 c -0.131283,-0.48496 0.162508,-0.99014 0.653534,-1.12037 0.07606,-0.0202 0.15272,-0.0304 0.228175,-0.0314 z m 1.035498,6.44637 c 0.786547,0 1.42421,0.63766 1.42421,1.42421 0,0.78655 -0.637663,1.42421 -1.42421,1.42421 -0.786547,0 -1.424211,-0.63766 -1.424211,-1.42421 0,-0.78655 0.637664,-1.42421 1.424211,-1.42421 z" />
  </g>
</svg>
